<?xml version="1.0" standalone="no"?>
<!DOCTYPE svg PUBLIC "-//W3C//DTD SVG 20010904//EN"
 "http://www.w3.org/TR/2001/REC-SVG-20010904/DTD/svg10.dtd">
<svg version="1.0" xmlns="http://www.w3.org/2000/svg"
 width="600.000000pt" height="600.000000pt" viewBox="0 0 600.000000 600.000000"
 preserveAspectRatio="xMidYMid meet">
<g transform="translate(0.000000,600.000000) scale(0.100000,-0.100000)"
fill="#000000" stroke="none">
<path d="M2263 5235 c-92 -25 -146 -57 -219 -129 -61 -62 -79 -88 -138 -211
-37 -76 -76 -151 -87 -166 l-19 -27 -207 -5 c-236 -6 -300 -19 -433 -88 -187
-97 -316 -256 -382 -469 l-23 -75 -3 -1185 c-3 -1280 -3 -1279 50 -1434 96
-282 341 -533 620 -635 162 -60 51 -56 1578 -56 1315 0 1399 1 1460 18 418
116 705 422 775 826 23 130 22 2367 -1 2478 -49 240 -185 424 -394 533 -132
68 -197 81 -430 87 -131 3 -210 9 -219 17 -8 6 -45 74 -82 151 -115 241 -200
325 -374 370 -84 21 -1391 21 -1472 0z m1370 -246 c70 -19 108 -66 208 -259
108 -207 160 -274 247 -317 56 -28 61 -28 282 -33 209 -5 229 -7 280 -30 154
-66 254 -197 280 -365 7 -48 10 -426 8 -1195 l-3 -1125 -23 -75 c-78 -253
-267 -439 -510 -501 -72 -18 -124 -19 -1402 -19 -1288 0 -1329 1 -1404 20
-243 62 -435 253 -508 507 l-23 78 0 1160 c0 1307 -5 1215 77 1343 50 77 102
121 194 164 l69 33 225 5 c207 5 229 8 277 29 86 38 137 103 247 312 55 106
111 200 130 218 63 61 53 60 711 61 393 0 613 -4 638 -11z"/>
<path d="M2232 4040 c-118 -24 -214 -100 -266 -210 -27 -56 -31 -76 -30 -145
1 -134 55 -235 161 -303 188 -120 433 -52 531 148 24 48 27 67 27 150 0 82 -4
103 -26 151 -72 154 -238 241 -397 209z"/>
<path d="M3637 4040 c-107 -19 -203 -91 -257 -192 -45 -84 -53 -192 -22 -281
91 -257 412 -329 606 -135 70 71 99 144 100 253 0 66 -4 90 -26 137 -15 32
-38 73 -53 92 -70 92 -223 148 -348 126z"/>
<path d="M1821 2808 c-53 -29 -81 -76 -81 -139 0 -56 79 -224 161 -339 121
-172 345 -360 529 -443 201 -91 349 -122 580 -121 153 0 189 3 285 26 402 95
730 355 911 722 60 122 68 175 35 236 -20 38 -89 80 -130 80 -32 0 -101 -31
-119 -53 -7 -8 -31 -52 -52 -96 -104 -214 -273 -388 -475 -489 -174 -87 -311
-117 -499 -109 -159 6 -265 31 -393 91 -125 60 -193 106 -290 199 -95 92 -169
194 -223 311 -45 98 -86 136 -153 143 -31 3 -53 -1 -86 -19z"/>
</g>
</svg>
